HIERARCHY
ROOT Hips
{
	OFFSET -0.001795 -0.223333 0.028219
	CHANNELS 6 Xposition Yposition Zposition Zrotation Yrotation Xrotation 
	JOINT LeftUpLeg
	{
		OFFSET 0.069520 -0.091406 -0.006815
		CHANNELS 3 Zrotation Yrotation Xrotation
		JOINT LeftLeg
		{
			OFFSET 0.034277 -0.375199 -0.004496
			CHANNELS 3 Zrotation Yrotation Xrotation
			JOINT LeftFoot
			{
				OFFSET -0.013596 -0.397961 -0.043693
				CHANNELS 3 Zrotation Yrotation Xrotation
				JOINT LeftToe
				{
					OFFSET 0.026358 -0.055791 0.119288
					CHANNELS 3 Zrotation Yrotation Xrotation
					End Site
					{
						OFFSET 0.000000 0.000000 0.000000
					}
				}
			}
		}
	}
	JOINT RightUpLeg
	{
		OFFSET -0.067670 -0.090522 -0.004320
		CHANNELS 3 Zrotation Yrotation Xrotation
		JOINT RightLeg
		{
			OFFSET -0.038290 -0.382569 -0.008850
			CHANNELS 3 Zrotation Yrotation Xrotation
			JOINT RightFoot
			{
				OFFSET 0.015774 -0.398415 -0.042312
				CHANNELS 3 Zrotation Yrotation Xrotation
				JOINT RightToe
				{
					OFFSET -0.025372 -0.048144 0.123348
					CHANNELS 3 Zrotation Yrotation Xrotation
					End Site
					{
						OFFSET 0.000000 0.000000 0.000000
					}
				}
			}
		}
	}
	JOINT Spine
	{
		OFFSET -0.002533 0.108963 -0.026696
		CHANNELS 3 Zrotation Yrotation Xrotation
		JOINT Spine1
		{
			OFFSET 0.005487 0.135180 0.001092
			CHANNELS 3 Zrotation Yrotation Xrotation
			JOINT Spine2
			{
				OFFSET 0.001457 0.052922 0.025425
				CHANNELS 3 Zrotation Yrotation Xrotation
				JOINT Neck
				{
					OFFSET -0.002778 0.213870 -0.042857
					CHANNELS 3 Zrotation Yrotation Xrotation
					JOINT Head
					{
						OFFSET 0.005152 0.064970 0.051349
						CHANNELS 3 Zrotation Yrotation Xrotation
						End Site
						{
							OFFSET 0.000000 0.000000 0.000000
						}
					}
				}
				JOINT LeftShoulder
				{
					OFFSET 0.078845 0.121749 -0.034090
					CHANNELS 3 Zrotation Yrotation Xrotation
					JOINT LeftArm
					{
						OFFSET 0.090977 0.030469 -0.008868
						CHANNELS 3 Zrotation Yrotation Xrotation
						JOINT LeftForeArm
						{
							OFFSET 0.259612 -0.012772 -0.027456
							CHANNELS 3 Zrotation Yrotation Xrotation
							JOINT LeftHand
							{
								OFFSET 0.249234 0.008986 -0.001171
								CHANNELS 3 Zrotation Yrotation Xrotation
								End Site
								{
									OFFSET 0.000000 0.000000 0.000000
								}
							}
						}
					}
				}
				JOINT RightShoulder
				{
					OFFSET -0.081759 0.118833 -0.038615
					CHANNELS 3 Zrotation Yrotation Xrotation
					JOINT RightArm
					{
						OFFSET -0.096012 0.032551 -0.009143
						CHANNELS 3 Zrotation Yrotation Xrotation
						JOINT RightForeArm
						{
							OFFSET -0.253742 -0.013329 -0.021401
							CHANNELS 3 Zrotation Yrotation Xrotation
							JOINT RightHand
							{
								OFFSET -0.255298 0.007772 -0.005559
								CHANNELS 3 Zrotation Yrotation Xrotation
								End Site
								{
									OFFSET 0.000000 0.000000 0.000000
								}
							}
						}
					}
				}
			}
		}
	}
}
MOTION
Frames: 11
Frame Time: 0.050000
0.000000 0.939541 0.000000 3.795544 19.913917 10.775812 7.400255 -0.917926 -10.184711 -4.463711 0.217499 3.966731 8.504545 19.611616 14.821007 0.000000 0.000000 0.000000 -9.735124 -1.021531 -26.002770 2.940845 -0.928976 16.078067 0.649076 -0.163333 7.638501 0.000000 0.000000 0.000000 12.695298 -6.324568 26.316483 -1.407853 1.249245 -16.374471 4.061348 1.024290 24.075245 17.316313 -9.758604 -16.177447 0.000000 0.000000 0.000000 3.897820 -21.235873 6.861634 -37.481108 -13.428005 -2.323082 -59.553473 -62.961196 38.141780 0.000000 0.000000 0.000000 16.855464 17.842556 11.564612 44.383635 51.158702 13.495520 8.789851 42.896740 6.628820 0.000000 0.000000 0.000000 
0.000351 0.939416 0.000119 3.867049 20.431777 11.355126 7.381073 -0.994857 -11.302836 -3.719841 0.173794 2.786525 10.020206 21.979742 18.296833 0.000000 0.000000 0.000000 -9.871911 -1.173082 -26.835306 4.010633 -1.323054 16.847159 0.456927 -0.740796 8.617885 0.000000 0.000000 0.000000 12.519319 -6.345063 26.382776 0.258469 0.765440 -16.044466 3.464027 1.961418 23.691318 16.451670 -9.385854 -14.794650 0.000000 0.000000 0.000000 4.569802 -19.875260 6.457836 -36.824780 -12.667258 -2.519486 -65.964745 -64.412111 43.274700 0.000000 0.000000 0.000000 18.716262 17.017049 11.934828 45.777539 51.508926 14.216700 10.077764 48.451016 8.633079 0.000000 0.000000 0.000000 
0.000488 0.938097 -0.000006 3.105682 18.864612 10.879032 8.055780 -0.927886 -10.666915 -4.691219 0.263106 3.241750 10.059849 21.685739 15.940299 0.000000 0.000000 0.000000 -9.136253 -0.850232 -27.358467 3.596598 -1.212044 18.244030 0.698390 -0.029563 6.971021 0.000000 0.000000 0.000000 12.309376 -6.578365 28.051926 -0.791380 1.060674 -17.579830 5.743044 1.907227 23.809834 15.863290 -8.823109 -15.588370 0.000000 0.000000 0.000000 5.568225 -18.106522 5.946056 -38.973188 -13.766162 -2.413506 -67.034717 -62.929473 43.489616 0.000000 0.000000 0.000000 16.597861 15.842806 10.344612 49.265657 50.288264 15.468572 13.978339 49.944307 10.824574 0.000000 0.000000 0.000000 
0.000512 0.939796 -0.000209 2.997883 19.753865 10.543183 8.235119 -0.936243 -10.628527 -3.982981 0.194076 3.457230 11.127269 23.089804 17.041404 0.000000 0.000000 0.000000 -9.087241 -0.881802 -26.914738 3.192914 -1.139809 18.386960 2.209049 2.934392 7.798344 0.000000 0.000000 0.000000 12.698049 -7.119948 29.222302 -0.328676 0.936167 -17.362288 5.697213 1.698589 22.853813 14.882792 -8.491782 -14.097778 0.000000 0.000000 0.000000 7.112623 -17.287402 5.720880 -39.611880 -11.948233 -2.950902 -69.083310 -62.908351 44.879226 0.000000 0.000000 0.000000 16.896943 16.481845 10.710862 50.751258 50.829368 16.584694 14.326661 48.482372 10.492887 0.000000 0.000000 0.000000 
0.000549 0.938473 -0.000798 3.497312 20.020717 10.879807 7.742087 -0.949739 -10.756863 -4.164096 0.196925 3.907444 10.943754 22.861600 16.675139 0.000000 0.000000 0.000000 -9.330457 -0.968308 -26.912643 2.822225 -0.989583 17.706650 1.514180 1.388864 8.410510 0.000000 0.000000 0.000000 12.424818 -7.212904 29.751805 0.026447 0.856780 -18.240905 5.652099 1.776753 23.702529 15.085404 -8.487918 -14.600448 0.000000 0.000000 0.000000 7.050075 -17.376955 5.751581 -38.612731 -12.239436 -2.852421 -72.404567 -62.685033 47.040236 0.000000 0.000000 0.000000 16.461448 17.426085 11.195968 49.674758 51.736811 16.587719 14.411612 48.046722 10.372860 0.000000 0.000000 0.000000 
0.000527 0.939007 -0.001570 3.566311 20.956157 10.948429 8.004325 -0.982226 -11.014354 -4.257914 0.188820 4.167007 10.484869 22.369135 16.829850 0.000000 0.000000 0.000000 -9.393037 -1.096285 -27.040044 2.523647 -0.962789 17.995989 1.650542 1.838567 8.014086 0.000000 0.000000 0.000000 12.770515 -7.565271 30.153253 -0.340311 0.972363 -18.435464 6.088479 1.738034 23.969090 14.900621 -8.229282 -14.926838 0.000000 0.000000 0.000000 6.880520 -17.544772 5.811326 -37.982397 -12.970331 -2.656251 -73.825078 -63.413352 48.595577 0.000000 0.000000 0.000000 15.631214 17.299883 10.954578 49.759585 52.373096 17.111004 14.804652 48.557338 10.697574 0.000000 0.000000 0.000000 
0.000628 0.938323 -0.002494 3.908641 21.218790 11.363236 7.723196 -1.033466 -11.749847 -4.435976 0.188966 4.714336 10.348374 22.257480 16.781718 0.000000 0.000000 0.000000 -9.778220 -1.291555 -27.619782 2.490654 -0.974807 18.171207 1.361853 1.201074 8.294901 0.000000 0.000000 0.000000 12.806904 -7.690954 30.370653 -0.487753 1.017706 -18.727195 6.135760 1.689168 24.472308 14.893538 -8.128390 -15.251499 0.000000 0.000000 0.000000 7.154127 -17.146430 5.714533 -37.887639 -13.518028 -2.566167 -75.088629 -63.725058 49.811561 0.000000 0.000000 0.000000 15.526958 17.792806 11.244521 49.850941 53.457938 17.748663 14.210632 47.784012 10.221754 0.000000 0.000000 0.000000 
0.000741 0.938350 -0.003335 3.993001 21.686734 11.798982 7.390350 -1.098513 -12.533496 -4.315553 0.161934 5.125245 10.013622 21.831986 15.970431 0.000000 0.000000 0.000000 -9.853582 -1.439404 -28.327666 2.270323 -0.971020 18.806872 1.361281 1.357786 7.770490 0.000000 0.000000 0.000000 13.114280 -7.916671 30.474270 -0.904342 1.136552 -19.292154 6.527481 2.100452 24.863521 15.362295 -8.342776 -15.475328 0.000000 0.000000 0.000000 6.741823 -17.525297 5.841416 -37.361526 -13.709891 -2.525397 -74.166879 -64.450890 49.408792 0.000000 0.000000 0.000000 15.765648 17.535570 11.345711 49.652156 53.986341 17.926804 14.947044 47.543053 10.570456 0.000000 0.000000 0.000000 
0.000907 0.938253 -0.003849 4.187407 22.237880 12.097134 7.103486 -1.151091 -13.055937 -4.290541 0.143948 5.420732 9.793810 21.583545 15.678970 0.000000 0.000000 0.000000 -10.110457 -1.628494 -28.737315 2.157488 -0.984479 19.107125 1.495667 1.702110 7.628058 0.000000 0.000000 0.000000 13.381612 -8.037623 30.281340 -0.928484 1.151196 -18.858297 6.419579 2.474767 24.496544 15.588892 -8.488841 -15.221694 0.000000 0.000000 0.000000 6.165370 -17.513957 5.861373 -36.577152 -14.218347 -2.318636 -71.299017 -65.361875 47.621412 0.000000 0.000000 0.000000 16.033067 17.774978 11.715372 49.259882 54.608860 18.104877 13.590654 46.677867 9.751476 0.000000 0.000000 0.000000 
0.001066 0.938308 -0.003966 4.382837 22.786285 12.221232 6.746792 -1.183427 -13.285187 -4.190984 0.123126 5.543600 9.679340 21.433538 15.326617 0.000000 0.000000 0.000000 -10.354801 -1.784950 -28.837729 2.151358 -1.029911 19.335556 1.509749 1.725385 7.786316 0.000000 0.000000 0.000000 13.616306 -8.193030 30.271167 -1.147170 1.219048 -19.061350 6.624333 2.775751 24.660726 16.065927 -8.561403 -15.903681 0.000000 0.000000 0.000000 5.792816 -17.747526 5.934400 -35.858775 -14.422838 -2.238850 -69.070806 -65.964794 46.087848 0.000000 0.000000 0.000000 15.539639 17.876751 11.753842 49.629459 55.005150 18.631064 12.392448 46.208110 9.123441 0.000000 0.000000 0.000000 
0.001310 0.938087 -0.003901 4.475562 23.056913 12.176193 6.412159 -1.190646 -13.272769 -3.934199 0.092503 5.638162 9.673302 21.381963 14.925131 0.000000 0.000000 0.000000 -10.421241 -1.854837 -28.925612 2.210541 -1.071223 19.428561 1.601109 1.943132 7.704580 0.000000 0.000000 0.000000 13.612567 -8.232194 30.316413 -1.220263 1.244118 -19.016897 6.819848 3.009083 24.461180 16.300017 -8.639927 -16.006236 0.000000 0.000000 0.000000 5.960420 -17.850121 5.972964 -35.678885 -14.736068 -2.150731 -67.841083 -66.562071 45.429303 0.000000 0.000000 0.000000 14.983328 18.085223 11.759985 50.329306 55.154290 19.239392 11.914228 45.843323 8.823319 0.000000 0.000000 0.000000 
